<?xml version="1.0" encoding="UTF-8" standalone="no"?>
<!DOCTYPE svg PUBLIC "-//W3C//DTD SVG 1.1//EN" "http://www.w3.org/Graphics/SVG/1.1/DTD/svg11.dtd">
<svg width="100%" height="100%" viewBox="0 0 642 693" version="1.1" xmlns="http://www.w3.org/2000/svg" xmlns:xlink="http://www.w3.org/1999/xlink" xml:space="preserve" xmlns:serif="http://www.serif.com/" style="fill-rule:evenodd;clip-rule:evenodd;stroke-linejoin:round;stroke-miterlimit:2;">
    <g transform="matrix(1,0,0,1,-51.074,-37.812)">
        <g>
            <path d="M413.73,237.623L433.175,241.115C441.179,242.552 448.28,242.929 455.355,242.316C498.983,238.534 534.385,202.966 536.584,159.229C539.122,108.731 498.772,66.841 448.819,66.841C400.361,66.841 360.94,106.26 360.94,154.717C360.94,182.844 374.654,209.506 397.628,226.033L413.73,237.623Z" style="fill:rgb(250,219,94);fill-rule:nonzero;"/>
            <path d="M609.075,285.065C529.188,316.584 453.627,308.24 450.303,307.853L440.038,306.653L437.813,296.561C435.269,285.023 429.138,274.123 420.551,265.869L406.358,252.224L389.242,252.333C385.909,252.352 382.542,252.801 379.24,253.656C355.134,259.902 335.899,285.147 320.44,330.831C308.262,366.815 301.827,406.815 301.827,446.503C301.827,465.105 289.843,496.775 186.209,556.751C147.633,579.076 109.547,597.682 89.979,606.914L130.82,692.589C182.526,670.359 239.849,643.503 287.995,606.588C303.261,594.885 315.637,583.262 325.836,571.057C328.295,568.118 330.648,564.92 333.141,561.532C336.902,556.42 340.79,551.133 345.482,546.143C356.323,534.624 370.323,528.42 385.971,528.203C425.047,527.551 464.556,563.176 479.756,578.465C508.636,607.513 535.695,642.59 560.323,682.878L632.464,637.988C579.379,513.126 425.794,415.45 424.204,414.448L423.466,413.984C410.064,405.555 418.187,384.822 433.747,387.739L434.606,387.9C538.284,407.324 622.161,367.432 652.251,350.215L609.075,285.065Z" style="fill:rgb(250,219,94);fill-rule:nonzero;"/>
            <path d="M681.041,366.483L692.454,358.337L619.888,248.826L608.688,253.773C547.835,280.643 486.117,280.789 463.098,279.689C462.059,276.783 460.868,273.929 459.536,271.142C522.384,265.404 571.014,209.708 565.266,144.216C560.274,87.325 513.564,41.762 456.574,38.064C388.616,33.655 331.912,87.691 331.912,154.718C331.912,182.434 341.903,209.072 359.476,229.951C331.276,242.68 309.429,272.8 292.941,321.522C279.764,360.473 272.797,403.686 272.797,446.502C272.797,475.243 164.732,541.64 64.608,586.677L51.074,592.767L116.588,730.188L129.378,724.764C185.905,700.786 250.805,671.681 305.655,629.626C322.638,616.604 336.524,603.536 348.11,589.673C351.146,586.044 353.879,582.326 356.522,578.735C359.922,574.109 363.134,569.744 366.624,566.035C372.173,560.138 378.448,557.341 386.369,557.233C386.525,557.228 386.683,557.228 386.841,557.228C409.61,557.228 439.981,579.633 459.168,598.934C489.331,629.272 517.503,666.749 542.896,710.326L550.418,723.234L668.179,649.957L664.042,638.84C628.618,543.635 539.962,464.263 485.22,422.189C598.3,424.423 677.239,369.195 681.041,366.483ZM560.322,682.879C535.694,642.591 508.635,607.514 479.755,578.466C464.555,563.177 425.047,527.552 385.97,528.204C370.321,528.421 356.322,534.625 345.481,546.144C340.789,551.133 336.901,556.42 333.14,561.533C330.648,564.921 328.295,568.119 325.835,571.058C315.637,583.262 303.26,594.885 287.994,606.589C239.848,643.504 182.525,670.36 130.819,692.59L89.978,606.915C109.546,597.683 147.632,579.076 186.208,556.752C289.842,496.775 301.826,465.105 301.826,446.504C301.826,406.816 308.261,366.816 320.439,330.832C335.899,285.148 355.133,259.903 379.239,253.657C382.542,252.802 385.908,252.353 389.241,252.334L406.357,252.225L420.55,265.87C429.137,274.124 435.268,285.024 437.812,296.562L440.037,306.654L450.302,307.854C453.626,308.241 529.187,316.585 609.074,285.066L652.249,350.216C622.159,367.433 538.282,407.325 434.604,387.901L433.745,387.74C418.184,384.823 410.062,405.557 423.464,413.985L424.202,414.449C425.792,415.451 579.376,513.126 632.462,637.989L560.322,682.879ZM448.819,66.841C498.772,66.841 539.122,108.73 536.584,159.229C534.386,202.966 498.984,238.534 455.355,242.316C448.28,242.929 441.179,242.553 433.175,241.115L413.73,237.623L397.628,226.033C374.654,209.506 360.94,182.844 360.94,154.717C360.94,106.26 400.362,66.841 448.819,66.841Z" style="fill-rule:nonzero;"/>
        </g>
    </g>
</svg>
