<?xml version="1.0" encoding="UTF-8" standalone="no"?>
<!DOCTYPE svg PUBLIC "-//W3C//DTD SVG 1.1//EN" "http://www.w3.org/Graphics/SVG/1.1/DTD/svg11.dtd">
<svg width="100%" height="100%" viewBox="0 0 705 459" version="1.1" xmlns="http://www.w3.org/2000/svg" xmlns:xlink="http://www.w3.org/1999/xlink" xml:space="preserve" xmlns:serif="http://www.serif.com/" style="fill-rule:evenodd;clip-rule:evenodd;stroke-linejoin:round;stroke-miterlimit:2;">
    <g transform="matrix(1,0,0,1,-19.635,-154.822)">
        <g>
            <g>
                <path d="M250.26,422.643C258.675,418.36 269.546,415.044 284.149,413.828C322.627,410.591 355.251,437.167 370.455,452.242C379.171,442.669 391.727,436.651 405.663,436.651C422.002,436.651 436.442,444.926 445.021,457.502C446.038,457.212 447.085,456.983 448.17,456.836C459.979,455.238 467.432,455.358 473.334,457.285C473.259,456.17 473.207,455.048 473.207,453.914C473.207,429.558 490.835,409.257 514,405.061L500.343,381.23C496.96,375.327 488.058,376.976 486.984,383.695C483.389,406.186 475.459,440.391 459.362,454.449C465.502,404.899 446.417,358.915 407.43,340.186C355.363,315.173 287.526,348.245 255.912,414.054C254.904,416.152 253.948,418.258 253.038,420.37C257.942,396.167 271.161,363.737 293.941,337.623C330.616,295.58 393.693,285.714 439.139,299.236C445.316,301.074 450.535,294.317 447.33,288.726L372.667,158.442C369.88,153.579 362.85,153.625 360.127,158.524L237.218,379.633C245.637,389.173 250.762,401.685 250.762,415.378C250.762,417.843 250.581,420.265 250.26,422.643Z" style="fill:rgb(6,0,92);fill-rule:nonzero;"/>
                <path d="M586.357,602.705L587.41,610.661L319.314,610.661L319.65,609.356L193.885,609.356L194.151,602.066C194.156,601.942 194.266,599.727 194.888,596.127L191.77,589.617C179.248,563.487 167.695,527.522 163.178,512.83L113.344,602.479C110.676,607.278 114.146,613.177 119.637,613.177L620.843,613.177C626.375,613.177 629.841,607.197 627.09,602.397L586.803,532.099C576.686,535.026 571.325,537.374 568.562,538.886C580.051,557.205 585.695,597.688 586.357,602.705Z" style="fill:rgb(6,0,92);fill-rule:nonzero;"/>
            </g>
            <path d="M285.317,427.845C255.055,430.368 244.374,443.071 235.792,453.281C231.03,458.948 226.528,464.301 219.774,466.946C215.203,468.733 209.274,469.423 202.512,469.155C200.59,469.363 198.641,469.476 196.664,469.476C193.609,469.476 190.616,469.208 187.697,468.719C181.536,467.686 175.725,465.613 170.453,462.679C157.981,458.499 145.258,452.484 134.187,445.105C108.763,428.153 84.431,410.509 66.247,382.193L37.269,400.645C46.233,418.11 81.551,475.07 169.672,497.444L171.476,497.902L173.567,498.433L174.694,502.289C174.826,502.744 187.119,544.609 201.031,576.083C208.386,559.605 223.56,539.793 254.773,530.939C242.075,522.378 233.706,507.863 233.706,491.43C233.706,465.175 255.066,443.815 281.321,443.815C303.766,443.815 322.622,459.43 327.626,480.364C328.168,482.633 328.548,484.964 328.751,487.345C328.866,488.693 328.938,490.053 328.938,491.43C328.938,492.424 328.897,493.407 328.837,494.386C328.608,498.107 327.951,501.713 326.912,505.157L331.449,502.574L339.53,493.771L346.358,486.333L353.187,478.894L359.715,471.782C360.424,469.176 361.349,466.66 362.47,464.251C349.911,451.44 319.57,424.979 285.317,427.845Z" style="fill:rgb(222,239,220);fill-rule:nonzero;"/>
            <g>
                <path d="M358.94,493.432L340.326,513.708L313.81,528.803C327.527,531.979 338.776,538.153 347.394,547.318C348.915,548.936 350.298,550.606 351.58,552.306C361.396,542.773 374.102,534.245 390.351,529.343C374.402,523.91 362.233,510.246 358.94,493.432Z" style="fill:rgb(249,219,169);fill-rule:nonzero;"/>
                <path d="M670.526,409.478C659.705,423.337 623.014,466.012 567.453,486.108L566.677,486.339C565.425,486.634 563.575,487.056 561.269,487.545C560.527,487.702 559.739,487.866 558.905,488.035C549.848,497.596 537.048,503.578 522.869,503.578C504.998,503.578 489.306,494.086 480.557,479.883C470.92,469.992 468.996,468.306 451.273,470.616C452.571,474.943 453.277,479.523 453.277,484.267C453.277,501.729 443.823,517.017 429.77,525.305C489.63,529.731 510.941,579.712 516.452,596.594L571.223,596.594C568.043,577.221 561.749,550.808 554.63,543.69L554.037,543.097L553.6,542.38C552.254,540.177 552.1,537.299 553.188,534.687C554.91,530.553 559.705,525.622 579.609,519.548C584.42,518.08 590.103,516.546 596.852,514.939C637.008,505.377 695.215,456.134 707.254,423.12L670.526,409.478Z" style="fill:rgb(249,219,169);fill-rule:nonzero;"/>
            </g>
            <path d="M337.636,557.519C337.441,557.305 337.266,557.083 337.066,556.871C329.881,549.271 320.113,544.294 307.898,541.94C305.591,541.495 303.198,541.142 300.716,540.886C298.365,540.643 295.945,540.475 293.438,540.402C293.391,540.401 293.342,540.402 293.295,540.4C290.626,540.325 287.872,540.343 285.029,540.461C282.722,540.558 280.492,540.714 278.321,540.913C270.352,541.645 263.285,543.043 257.023,544.946C244.091,548.876 234.578,554.947 227.587,561.704C222.779,566.351 219.163,571.321 216.443,576.141C214.297,579.943 212.71,583.648 211.535,587.029C210.463,590.112 209.732,592.926 209.238,595.289L323.775,595.289C325.912,589.619 329.75,580.889 335.888,571.481C337.27,569.362 338.765,567.211 340.387,565.052C340.89,564.383 341.404,563.713 341.931,563.043C340.667,561.14 339.245,559.289 337.636,557.519Z" style="fill:rgb(249,0,0);fill-rule:nonzero;"/>
            <path d="M498.429,588.736C490.89,572.524 474.824,549.151 443.146,541.544C438.979,540.544 434.542,539.817 429.818,539.415C427.026,539.177 424.141,539.046 421.146,539.046C420.286,539.046 419.434,539.057 418.59,539.077C416.781,539.12 415.012,539.213 413.277,539.346C410.773,539.537 408.346,539.819 405.991,540.183C403.562,540.558 401.21,541.02 398.935,541.563C385.165,544.85 374.174,551.053 365.467,558.354C363.08,560.356 360.861,562.438 358.807,564.567C357.888,565.52 357.004,566.482 356.148,567.449C355.278,568.433 354.437,569.422 353.63,570.413C352.718,571.535 351.849,572.659 351.017,573.782C350.152,574.949 349.329,576.113 348.546,577.269C344.046,583.916 340.889,590.286 338.777,595.288C338.589,595.733 338.407,596.171 338.235,596.593L501.69,596.593C500.848,594.29 499.773,591.626 498.429,588.736Z" style="fill:rgb(249,251,53);fill-rule:nonzero;"/>
            <g>
                <path d="M196.665,375.351C174.593,375.351 156.637,393.306 156.637,415.379C156.637,429.982 164.5,442.779 176.212,449.771C181.786,453.099 188.232,455.107 195.119,455.37C195.633,455.39 196.146,455.409 196.665,455.409C198.336,455.409 199.98,455.294 201.597,455.094C221.349,452.654 236.694,435.78 236.694,415.379C236.694,407.078 234.153,399.361 229.81,392.961C222.605,382.341 210.436,375.351 196.665,375.351Z" style="fill:white;fill-rule:nonzero;"/>
                <path d="M281.322,457.881C262.824,457.881 247.774,472.931 247.774,491.429C247.774,509.929 262.824,524.979 281.322,524.979C289.628,524.979 297.232,521.939 303.097,516.922C310.296,510.764 314.872,501.624 314.872,491.429C314.872,490.597 314.831,489.776 314.771,488.959C313.501,471.611 298.99,457.881 281.322,457.881Z" style="fill:white;fill-rule:nonzero;"/>
                <path d="M436.809,471.825C435.859,469.455 434.648,467.218 433.208,465.149C427.142,456.436 417.06,450.718 405.663,450.718C395.381,450.718 386.17,455.371 380.011,462.676C376.42,466.936 373.868,472.096 372.75,477.767C372.7,478.022 372.657,478.28 372.612,478.537C372.29,480.4 372.113,482.311 372.113,484.265C372.113,484.461 372.124,484.654 372.128,484.849C372.169,487.25 372.464,489.59 372.987,491.844C374.862,499.929 379.663,506.899 386.214,511.577C389.128,513.658 392.382,515.288 395.883,516.357C398.51,517.159 401.271,517.646 404.126,517.776C404.636,517.799 405.148,517.815 405.664,517.815C409.048,517.815 412.315,517.307 415.397,516.37C418.127,515.541 420.712,514.376 423.099,512.917C426.266,510.982 429.088,508.537 431.452,505.697C436.294,499.88 439.212,492.408 439.212,484.265C439.212,483.338 439.164,482.422 439.09,481.514C438.811,478.118 438.027,474.863 436.809,471.825Z" style="fill:white;fill-rule:nonzero;"/>
                <path d="M522.87,418.32C522.45,418.32 522.033,418.337 521.617,418.352C502.569,419.016 487.276,434.708 487.276,453.915C487.276,460.214 488.928,466.132 491.811,471.271C495.166,477.252 500.195,482.168 506.262,485.384C511.224,488.014 516.875,489.51 522.871,489.51C530.062,489.51 536.756,487.36 542.36,483.679C545.864,481.377 548.942,478.479 551.44,475.123C551.96,474.425 552.448,473.702 552.916,472.966C556.424,467.453 558.466,460.92 558.466,453.916C558.464,434.288 542.496,418.32 522.87,418.32Z" style="fill:white;fill-rule:nonzero;"/>
            </g>
            <path d="M665.425,392.582L662.304,397.003C661.94,397.516 626.782,446.626 569.806,470.111C571.564,465.031 572.532,459.585 572.532,453.915C572.532,426.531 550.254,404.253 522.87,404.253C519.841,404.253 516.881,404.54 514,405.062C490.836,409.258 473.207,429.56 473.207,453.915C473.207,455.049 473.259,456.17 473.334,457.286C467.431,455.359 459.979,455.239 448.17,456.837C447.085,456.984 446.038,457.213 445.021,457.503C436.442,444.927 422.002,436.652 405.663,436.652C391.728,436.652 379.171,442.67 370.455,452.243C355.251,437.168 322.627,410.592 284.149,413.829C269.546,415.045 258.675,418.362 250.26,422.644C250.581,420.266 250.762,417.844 250.762,415.379C250.762,401.686 245.638,389.173 237.218,379.634C227.298,368.394 212.8,361.284 196.664,361.284C166.837,361.284 142.569,385.552 142.569,415.379C142.569,422.86 144.097,429.99 146.854,436.477C145.206,435.487 143.582,434.462 141.989,433.401C116.18,416.192 91.605,398.31 74.607,368.89L70.932,362.532L19.635,395.194L21.716,400.57C22.994,403.874 53.938,480.932 162.332,510.067C162.577,510.875 162.86,511.804 163.176,512.831C167.693,527.524 179.246,563.488 191.768,589.618L194.886,596.128C194.264,599.728 194.154,601.943 194.149,602.067L193.883,609.357L319.647,609.357L319.311,610.662L587.407,610.662L586.354,602.706C585.692,597.689 580.048,557.206 568.559,538.887C571.322,537.375 576.684,535.027 586.8,532.1C590.548,531.016 594.943,529.853 600.108,528.622C644.275,518.108 714.27,461.51 722.686,420.194L723.888,414.294L665.425,392.582ZM553.189,534.687C552.101,537.299 552.255,540.178 553.601,542.38L554.038,543.097L554.631,543.69C561.75,550.808 568.044,577.222 571.224,596.594L516.453,596.594C510.941,579.712 489.631,529.731 429.771,525.305C443.824,517.017 453.278,501.729 453.278,484.267C453.278,479.523 452.571,474.943 451.274,470.616C468.996,468.306 470.921,469.992 480.558,479.883C489.307,494.087 504.999,503.578 522.87,503.578C537.049,503.578 549.848,497.596 558.906,488.035C559.74,487.866 560.527,487.702 561.27,487.545C563.576,487.057 565.426,486.635 566.678,486.339L567.454,486.108C623.014,466.012 659.706,423.337 670.527,409.478L707.255,423.12C695.216,456.134 637.009,505.378 596.853,514.939C590.104,516.546 584.421,518.08 579.61,519.548C559.706,525.622 554.911,530.553 553.189,534.687ZM501.69,596.594L338.235,596.594C338.407,596.172 338.589,595.734 338.777,595.289C340.889,590.287 344.047,583.917 348.546,577.27C349.329,576.114 350.151,574.95 351.017,573.783C351.849,572.661 352.718,571.536 353.63,570.414C354.436,569.422 355.277,568.433 356.148,567.45C357.003,566.483 357.887,565.521 358.807,564.568C360.861,562.439 363.08,560.357 365.467,558.355C374.174,551.054 385.165,544.851 398.935,541.564C401.21,541.021 403.562,540.559 405.991,540.184C408.346,539.82 410.773,539.538 413.277,539.347C415.013,539.214 416.781,539.121 418.59,539.078C419.434,539.058 420.286,539.047 421.146,539.047C424.141,539.047 427.027,539.178 429.818,539.416C434.541,539.819 438.979,540.545 443.146,541.545C474.824,549.152 490.89,572.525 498.429,588.737C499.773,591.626 500.848,594.29 501.69,596.594ZM173.567,498.432L171.476,497.901L169.672,497.443C81.551,475.069 46.233,418.11 37.269,400.644L66.247,382.192C84.431,410.508 108.763,428.152 134.187,445.104C145.258,452.483 157.981,458.498 170.453,462.678C175.726,465.612 181.536,467.685 187.697,468.718C190.616,469.207 193.608,469.475 196.664,469.475C198.64,469.475 200.59,469.361 202.512,469.154C209.274,469.422 215.203,468.732 219.774,466.945C226.528,464.3 231.03,458.947 235.792,453.28C244.374,443.07 255.055,430.368 285.317,427.844C319.57,424.978 349.911,451.439 362.473,464.249C361.352,466.658 360.427,469.174 359.718,471.78L353.19,478.892L346.361,486.331L339.533,493.769L331.452,502.572L326.915,505.155C327.954,501.711 328.611,498.105 328.84,494.384C328.9,493.405 328.941,492.422 328.941,491.428C328.941,490.051 328.869,488.691 328.754,487.343C328.551,484.962 328.171,482.631 327.629,480.362C322.625,459.428 303.769,443.813 281.324,443.813C255.069,443.813 233.709,465.173 233.709,491.428C233.709,507.861 242.077,522.376 254.776,530.937C223.562,539.791 208.389,559.603 201.034,576.081C187.122,544.608 174.829,502.742 174.697,502.287L173.567,498.432ZM156.637,415.378C156.637,393.306 174.592,375.35 196.665,375.35C210.437,375.35 222.605,382.341 229.811,392.959C234.154,399.359 236.695,407.077 236.695,415.377C236.695,435.778 221.35,452.652 201.598,455.092C199.98,455.292 198.337,455.407 196.666,455.407C196.148,455.407 195.634,455.387 195.12,455.368C188.233,455.105 181.787,453.097 176.213,449.769C164.5,442.778 156.637,429.981 156.637,415.378ZM380.011,462.677C386.17,455.372 395.381,450.719 405.663,450.719C417.06,450.719 427.142,456.437 433.208,465.15C434.648,467.218 435.859,469.455 436.809,471.826C438.027,474.864 438.811,478.118 439.089,481.516C439.163,482.424 439.211,483.34 439.211,484.267C439.211,492.41 436.293,499.882 431.451,505.699C429.087,508.539 426.265,510.985 423.098,512.919C420.71,514.378 418.125,515.543 415.396,516.372C412.314,517.308 409.047,517.817 405.663,517.817C405.147,517.817 404.635,517.801 404.125,517.778C401.271,517.649 398.509,517.161 395.882,516.359C392.382,515.29 389.127,513.66 386.213,511.579C379.661,506.9 374.86,499.93 372.986,491.846C372.463,489.592 372.168,487.252 372.127,484.851C372.124,484.656 372.112,484.463 372.112,484.267C372.112,482.314 372.289,480.402 372.611,478.539C372.655,478.282 372.699,478.024 372.749,477.769C373.868,472.097 376.42,466.937 380.011,462.677ZM347.394,547.319C338.776,538.154 327.528,531.98 313.81,528.804L340.326,513.709L358.94,493.433C362.233,510.247 374.402,523.911 390.351,529.344C374.102,534.247 361.396,542.774 351.58,552.307C350.298,550.607 348.915,548.937 347.394,547.319ZM314.872,491.428C314.872,501.623 310.296,510.763 303.097,516.921C297.232,521.938 289.627,524.978 281.322,524.978C262.824,524.978 247.774,509.928 247.774,491.428C247.774,472.93 262.824,457.88 281.322,457.88C298.991,457.88 313.501,471.61 314.771,488.958C314.831,489.775 314.872,490.597 314.872,491.428ZM211.534,587.029C212.709,583.648 214.296,579.943 216.442,576.141C219.163,571.321 222.779,566.351 227.586,561.704C234.577,554.946 244.09,548.876 257.022,544.946C263.283,543.043 270.351,541.646 278.32,540.913C280.491,540.714 282.721,540.558 285.028,540.461C287.872,540.344 290.625,540.326 293.294,540.4C293.341,540.401 293.39,540.4 293.437,540.402C295.944,540.475 298.364,540.643 300.715,540.886C303.197,541.142 305.59,541.495 307.897,541.94C320.112,544.294 329.88,549.271 337.065,556.871C337.265,557.083 337.441,557.305 337.635,557.519C339.244,559.289 340.666,561.14 341.928,563.043C341.401,563.713 340.887,564.382 340.384,565.052C338.762,567.212 337.267,569.363 335.885,571.481C329.748,580.89 325.909,589.62 323.772,595.289L209.237,595.289C209.731,592.926 210.462,590.112 211.534,587.029ZM558.464,453.915C558.464,460.92 556.422,467.452 552.914,472.965C552.446,473.701 551.957,474.423 551.438,475.122C548.94,478.479 545.862,481.376 542.358,483.678C536.755,487.359 530.06,489.509 522.869,489.509C516.873,489.509 511.222,488.012 506.26,485.383C500.193,482.168 495.164,477.251 491.809,471.27C488.926,466.131 487.274,460.213 487.274,453.914C487.274,434.708 502.568,419.015 521.615,418.351C522.032,418.336 522.448,418.319 522.868,418.319C542.496,418.32 558.464,434.288 558.464,453.915Z" style="fill-rule:nonzero;"/>
        </g>
    </g>
</svg>
