<?xml version="1.0" encoding="UTF-8" standalone="no"?>
<!DOCTYPE svg PUBLIC "-//W3C//DTD SVG 1.1//EN" "http://www.w3.org/Graphics/SVG/1.1/DTD/svg11.dtd">
<svg width="100%" height="100%" viewBox="0 0 668 522" version="1.1" xmlns="http://www.w3.org/2000/svg" xmlns:xlink="http://www.w3.org/1999/xlink" xml:space="preserve" xmlns:serif="http://www.serif.com/" style="fill-rule:evenodd;clip-rule:evenodd;stroke-linejoin:round;stroke-miterlimit:2;">
    <g transform="matrix(1,0,0,1,-37.945,-123.356)">
        <g>
            <g>
                <path d="M642.807,309.512C582.661,333.239 525.769,326.96 523.268,326.669L515.542,325.765L513.867,318.167C511.953,309.484 507.336,301.274 500.869,295.059L490.183,284.786L477.302,284.868C474.791,284.882 472.258,285.22 469.771,285.864C451.618,290.567 437.137,309.573 425.497,343.969C416.33,371.058 411.485,401.174 411.485,431.058C411.485,445.067 402.46,468.907 324.435,514.063C295.392,530.871 266.716,544.88 251.984,551.831L282.733,616.335C321.662,599.598 364.821,579.378 401.069,551.585C412.561,542.774 421.881,534.023 429.563,524.834C431.409,522.621 433.181,520.217 435.054,517.67C437.887,513.817 440.817,509.837 444.351,506.077C452.513,497.404 463.053,492.734 474.833,492.57C475.054,492.566 475.278,492.566 475.495,492.566C504.65,492.566 534.087,518.986 545.445,530.412C567.184,552.275 587.556,578.684 606.104,609.028L660.42,575.23C620.49,481.343 504.814,407.679 503.619,406.925L498.362,403.614C489.267,397.886 494.784,383.813 505.349,385.793L511.452,386.937C589.502,401.561 652.662,371.527 675.314,358.564L642.807,309.512Z" style="fill:rgb(250,219,94);fill-rule:nonzero;"/>
                <path d="M495.742,273.797L510.373,276.422C516.469,277.517 521.876,277.794 527.257,277.31C560.096,274.353 586.676,247.517 588.24,214.583C590.042,176.647 559.702,145.213 522.155,145.213C485.672,145.213 455.99,174.891 455.99,211.375C455.99,232.551 466.317,252.625 483.612,265.069L495.742,273.797Z" style="fill:rgb(250,219,94);fill-rule:nonzero;"/>
                <path d="M696.987,370.811L705.581,364.678L650.948,282.227L642.514,285.951C596.7,306.178 550.249,306.274 532.9,305.463C532.117,303.275 531.225,301.127 530.218,299.028C577.54,294.708 614.154,252.771 609.823,203.46C606.061,160.626 570.89,126.324 527.981,123.545C476.819,120.232 434.132,160.913 434.132,211.374C434.132,232.241 441.654,252.297 454.885,268.017C433.653,277.6 417.205,300.278 404.791,336.961C394.87,366.284 389.626,398.818 389.626,431.058C389.624,452.697 308.262,502.687 232.88,536.595L222.69,541.18L272.015,644.643L281.645,640.559C324.204,622.506 373.067,600.593 414.363,568.93C427.148,559.13 437.604,549.29 446.33,538.85C448.612,536.118 450.668,533.322 452.657,530.618C455.218,527.135 457.637,523.848 460.264,521.052C464.444,516.613 469.166,514.507 475.132,514.425C475.249,514.421 475.37,514.421 475.488,514.421C492.631,514.421 515.497,531.29 529.943,545.821C552.649,568.655 573.858,596.871 592.981,629.687L598.644,639.405L687.309,584.235L684.193,575.865C657.524,504.186 590.772,444.427 549.557,412.75C634.643,414.338 694.131,372.853 696.987,370.811ZM606.103,609.028C587.555,578.684 567.183,552.275 545.444,530.412C534.086,518.986 504.649,492.566 475.494,492.566C475.277,492.566 475.053,492.566 474.832,492.57C463.052,492.734 452.512,497.404 444.35,506.077C440.816,509.837 437.886,513.818 435.053,517.67C433.18,520.217 431.409,522.622 429.562,524.834C421.88,534.022 412.56,542.773 401.068,551.585C364.819,579.378 321.661,599.598 282.732,616.335L251.983,551.831C266.715,544.88 295.391,530.872 324.434,514.063C402.459,468.907 411.484,445.066 411.484,431.058C411.484,401.173 416.329,371.057 425.496,343.969C437.135,309.574 451.617,290.567 469.77,285.864C472.257,285.22 474.789,284.882 477.301,284.868L490.182,284.786L500.868,295.059C507.335,301.274 511.952,309.484 513.866,318.167L515.541,325.765L523.267,326.669C525.768,326.961 582.659,333.239 642.806,309.512L675.312,358.563C652.659,371.526 589.5,401.56 511.45,386.936L505.347,385.792C494.782,383.812 489.265,397.886 498.36,403.613L503.617,406.924C504.812,407.678 620.488,481.342 660.418,575.229L606.103,609.028ZM522.154,145.213C559.701,145.213 590.041,176.648 588.239,214.583C586.675,247.517 560.095,274.354 527.256,277.31C521.875,277.794 516.468,277.517 510.372,276.422L495.741,273.797L483.611,265.067C466.316,252.624 455.989,232.55 455.989,211.373C455.989,174.891 485.671,145.213 522.154,145.213Z" style="fill-rule:nonzero;"/>
            </g>
            <g>
                <g>
                    <rect x="37.945" y="156.599" width="351.284" height="29.141"/>
                </g>
                <g>
                    <rect x="115.039" y="273.431" width="174.052" height="29.141"/>
                </g>
                <g>
                    <rect x="72.12" y="383.902" width="211.407" height="29.141"/>
                </g>
            </g>
        </g>
    </g>
</svg>
