<?xml version="1.0" encoding="UTF-8" standalone="no"?>
<!DOCTYPE svg PUBLIC "-//W3C//DTD SVG 1.1//EN" "http://www.w3.org/Graphics/SVG/1.1/DTD/svg11.dtd">
<svg width="100%" height="100%" viewBox="0 0 157 157" version="1.1" xmlns="http://www.w3.org/2000/svg" xmlns:xlink="http://www.w3.org/1999/xlink" xml:space="preserve" xmlns:serif="http://www.serif.com/" style="fill-rule:evenodd;clip-rule:evenodd;stroke-linejoin:round;stroke-miterlimit:2;">
    <g transform="matrix(1,0,0,1,-9857,-24747)">
        <path d="M10014,24904L10014,24747L9857,24747L9857,24795L9966,24795L9966,24904L10014,24904Z" style="fill:rgb(208,208,208);"/>
        <path d="M10014,24904L10014,24747L9857,24747L9857,24795L9966,24795L9966,24904L10014,24904ZM10009,24899L9971,24899C9971,24899 9971,24795 9971,24795C9971,24792.2 9968.76,24790 9966,24790L9862,24790C9862,24790 9862,24752 9862,24752C9862,24752 10009,24752 10009,24752L10009,24899Z"/>
    </g>
</svg>
