<?xml version="1.0" encoding="UTF-8" standalone="no"?>
<!DOCTYPE svg PUBLIC "-//W3C//DTD SVG 1.1//EN" "http://www.w3.org/Graphics/SVG/1.1/DTD/svg11.dtd">
<svg width="100%" height="100%" viewBox="0 0 630 705" version="1.1" xmlns="http://www.w3.org/2000/svg" xmlns:xlink="http://www.w3.org/1999/xlink" xml:space="preserve" xmlns:serif="http://www.serif.com/" style="fill-rule:evenodd;clip-rule:evenodd;stroke-linejoin:round;stroke-miterlimit:2;">
    <g transform="matrix(1,0,0,1,-29.103,-31.647)">
        <g>
            <g transform="matrix(1,0,0,1,29.103,31.647)">
                <path d="M629.517,0L0,0L0,704.705L629.517,704.705L629.517,0ZM606,106L30,106L30,681L606,681L606,106Z" style="fill:rgb(169,169,169);"/>
            </g>
            <path d="M131.137,712.717L131.137,726.14L39.025,726.14L39.025,731.392L33.383,731.392L33.383,736.353L658.62,736.353L658.62,36.316L653.173,36.316L653.173,41.277L648.99,41.277L648.99,133.681L635.275,133.681L635.275,137.572L652.589,137.572L652.589,142.922L648.796,142.922L648.796,624.203L635.276,624.203L635.276,629.747L652.687,629.747L652.687,633.929L648.699,633.929L648.699,726.042L556.489,726.042L556.489,731.392L551.237,731.392L551.237,712.911L547.152,712.911L547.152,726.237L140.67,726.237L140.67,731.392L135.126,731.392L135.126,712.717L131.137,712.717" style="fill:rgb(116,116,116);fill-rule:nonzero;"/>
            <path d="M648.991,41.277L556.441,41.277L556.441,54.846L635.52,54.846L635.52,133.681L648.991,133.681L648.991,41.277Z" style="fill:rgb(211,211,211);fill-rule:nonzero;"/>
            <rect x="556.441" y="54.846" width="79.079" height="3.648" style="fill:rgb(116,116,116);"/>
            <rect x="140.183" y="54.846" width="410.896" height="3.648" style="fill:rgb(116,116,116);"/>
            <rect x="140.183" y="41.277" width="410.896" height="13.569" style="fill:rgb(211,211,211);"/>
            <rect x="556.441" y="62.773" width="71.054" height="66.823" style="fill:rgb(211,211,211);"/>
            <rect x="569.621" y="76.099" width="44.208" height="44.208" style="fill:rgb(169,169,169);"/>
            <rect x="573.609" y="80.087" width="35.065" height="36.232" style="fill:rgb(211,211,211);"/>
            <rect x="476.244" y="62.773" width="71.054" height="66.823" style="fill:rgb(211,211,211);"/>
            <rect x="140.183" y="62.773" width="328.23" height="66.823" style="fill:rgb(211,211,211);"/>
            <path d="M608.674,80.087L613.829,80.087L613.829,120.307L573.609,120.307L573.609,116.319L608.674,116.319L608.674,80.087Z" style="fill:rgb(116,116,116);fill-rule:nonzero;"/>
            <rect x="503.041" y="89.473" width="17.46" height="17.46" style="fill:rgb(169,169,169);"/>
            <rect x="506.872" y="93.379" width="9.337" height="9.647" style="fill:rgb(211,211,211);"/>
            <path d="M506.872,103.027L506.872,106.933L520.5,106.933L520.5,93.379L516.208,93.379L516.208,103.027L506.872,103.027Z" style="fill:rgb(116,116,116);fill-rule:nonzero;"/>
            <rect x="60.035" y="62.773" width="71.054" height="66.823" style="fill:rgb(211,211,211);"/>
            <path d="M73.652,106.884L73.652,89.619L117.666,89.619L117.666,93.51L77.737,93.51L77.737,106.884L73.652,106.884Z" style="fill:rgb(169,169,169);fill-rule:nonzero;"/>
            <path d="M77.737,106.884L117.666,106.884L117.666,93.51L113.775,93.51L113.775,102.847L77.737,102.847L77.737,106.884Z" style="fill:rgb(116,116,116);fill-rule:nonzero;"/>
            <rect x="547.298" y="35.951" width="3.782" height="22.542" style="fill:rgb(116,116,116);"/>
            <path d="M627.495,62.773L627.495,129.596L556.441,129.596L556.441,133.681L550.945,133.681L550.945,62.773L547.298,62.773L547.298,129.596L476.244,129.596L476.244,133.681L472.256,133.681L472.256,62.773L468.413,62.773L468.413,129.596L140.183,129.596L140.183,133.681L135.417,133.681L135.417,62.773L131.089,62.773L131.089,129.596L60.035,129.596L60.035,133.681L56.338,133.681L56.338,58.493L135.223,58.493L135.223,35.733L131.089,35.733L131.089,54.846L52.35,54.846L52.35,133.681L33.383,133.681L33.383,137.669L56.241,137.669L56.241,143.214L52.253,143.214L52.253,624.3L33.383,624.3L33.383,629.747L56.338,629.747L56.338,634.027L52.448,634.027L52.448,712.717L56.144,712.717L56.144,708.534L60.132,708.534L60.132,704.838L59.062,704.838L59.062,137.669L631.386,137.669L631.386,62.773L627.495,62.773Z" style="fill:rgb(116,116,116);fill-rule:nonzero;"/>
            <path d="M131.089,54.846L131.089,41.277L38.927,41.277L38.927,133.681L52.35,133.681L52.35,54.846L131.089,54.846Z" style="fill:rgb(211,211,211);fill-rule:nonzero;"/>
            <rect x="38.927" y="143.214" width="13.326" height="481.087" style="fill:rgb(211,211,211);"/>
            <path d="M38.927,634.076L52.448,634.076L52.448,712.717L131.137,712.717L131.137,726.14L39.025,726.14L38.927,634.076Z" style="fill:rgb(211,211,211);fill-rule:nonzero;"/>
            <path d="M140.694,712.717L547.152,712.911L547.152,726.237L140.67,726.237L140.694,712.717Z" style="fill:rgb(211,211,211);fill-rule:nonzero;"/>
            <path d="M556.441,712.717L556.441,726.042L648.699,726.042L648.699,633.93L635.374,633.93L635.374,712.717L556.441,712.717Z" style="fill:rgb(211,211,211);fill-rule:nonzero;"/>
            <rect x="635.276" y="143.043" width="13.52" height="481.16" style="fill:rgb(211,211,211);"/>
            <g>
                <path d="M215.517,98.762L215.517,102.896L211.48,102.896L211.48,107.079L206.082,107.079L206.082,116.174L215.517,116.174L215.517,106.934C215.517,106.934 224.903,106.642 224.903,106.934L224.903,116.174L232.782,116.174L232.782,106.885L228.697,106.885L228.697,102.946L224.806,102.946L224.806,98.812L228.745,98.812L228.745,93.487L232.782,93.487L232.782,85.438L224.806,85.438L224.806,93.438L215.371,93.438L215.371,85.438L206.082,85.438L206.082,93.414L211.529,93.414L211.529,98.764L215.517,98.764L215.517,98.762Z" style="fill-rule:nonzero;"/>
                <path d="M263.568,93.412L263.568,89.57L259.677,89.57L259.677,85.436L242.071,85.436L242.071,89.424L236.867,89.424L236.867,112.282L242.217,112.282L242.217,116.173L259.58,116.173L259.58,112.282L263.568,112.282L263.568,106.933L255.592,106.933L255.592,112.234L246.254,112.234L246.254,89.473L255.689,89.473L255.689,93.461L263.568,93.412Z" style="fill-rule:nonzero;"/>
                <path d="M273.051,85.436L290.365,85.436L290.365,89.473L294.499,89.473L294.499,112.136L290.316,112.136L290.316,116.173L273.051,116.173L273.051,112.185L268.917,112.185L268.917,89.619L273.148,89.619L273.051,85.436ZM286.377,89.473L276.942,89.473L276.942,112.039L286.377,112.039L286.377,89.473Z" style="fill-rule:nonzero;"/>
                <path d="M303.739,116.173L313.028,116.173L313.028,89.473L317.113,89.473L317.113,85.631L313.125,85.631L313.125,80.184L321.101,80.184L321.101,76.147L307.824,76.147L307.824,80.233L303.739,80.233L303.739,85.436L299.605,85.436L299.605,89.473L303.739,89.473L303.739,116.173Z" style="fill-rule:nonzero;"/>
                <path d="M326.354,116.173L334.573,116.173L334.573,89.473L339.825,89.473L339.825,85.436L334.524,85.436L334.524,80.184L343.862,80.184L343.862,76.147L330.488,76.147L330.488,80.233L326.354,80.233L326.354,85.436L321.101,85.436L321.101,89.473L326.5,89.473L326.354,116.173Z" style="fill-rule:nonzero;"/>
                <path d="M347.996,89.522L347.996,85.534L365.212,85.534L365.212,89.522L370.464,89.522L370.464,102.848L351.886,102.848L351.886,112.234L361.175,112.234L361.175,106.787L370.464,106.787L370.464,112.283L365.114,112.283L365.114,116.174L347.946,116.174L347.946,112.137L343.861,112.137L343.861,89.522L347.996,89.522ZM361.224,89.522L351.886,89.522L351.886,98.86L361.224,98.86L361.224,89.522Z" style="fill-rule:nonzero;"/>
                <path d="M378.684,89.522L378.684,85.534L397.359,85.534L397.359,89.522L401.152,89.522L401.152,102.848L383.984,102.848L383.984,112.234L391.863,112.234L391.863,106.787L401.152,106.787L401.152,112.283L397.359,112.283L397.359,116.174L378.635,116.174L378.635,112.137L374.55,112.137L374.55,89.522L378.684,89.522ZM391.912,89.522L383.985,89.522L383.985,98.86L391.912,98.86L391.912,89.522Z" style="fill-rule:nonzero;"/>
            </g>
        </g>
    </g>
</svg>
